<svg xmlns="http://www.w3.org/2000/svg" width="146.95999999999998" height="35" viewBox="0 0 146.95999999999998 35"><rect class="svg__rect" x="0" y="0" width="100.91" height="35" fill="#000000"/><rect class="svg__rect" x="98.91" y="0" width="48.05" height="35" fill="#6AD7E4"/><path class="svg__text" d="M13.95 18.19L13.95 18.19L13.95 17.39Q13.95 16.19 14.38 15.27Q14.80 14.35 15.60 13.85Q16.40 13.35 17.45 13.35L17.45 13.35Q18.86 13.35 19.73 14.12Q20.59 14.89 20.73 16.29L20.73 16.29L19.25 16.29Q19.14 15.37 18.71 14.96Q18.28 14.55 17.45 14.55L17.45 14.55Q16.48 14.55 15.97 15.26Q15.45 15.96 15.44 17.33L15.44 17.33L15.44 18.09Q15.44 19.47 15.93 20.20Q16.43 20.92 17.38 20.92L17.38 20.92Q18.25 20.92 18.69 20.53Q19.13 20.14 19.25 19.22L19.25 19.22L20.73 19.22Q20.60 20.59 19.72 21.35Q18.84 22.12 17.38 22.12L17.38 22.12Q16.36 22.12 15.59 21.63Q14.81 21.15 14.39 20.26Q13.97 19.37 13.95 18.19ZM24.77 18.00L24.77 18.00L24.77 17.52Q24.77 16.28 25.21 15.32Q25.65 14.37 26.46 13.86Q27.27 13.35 28.31 13.35Q29.35 13.35 30.16 13.85Q30.96 14.35 31.40 15.29Q31.84 16.23 31.85 17.48L31.85 17.48L31.85 17.96Q31.85 19.21 31.41 20.16Q30.98 21.10 30.18 21.61Q29.37 22.12 28.32 22.12L28.32 22.12Q27.28 22.12 26.47 21.61Q25.66 21.10 25.22 20.17Q24.78 19.23 24.77 18.00ZM26.25 17.46L26.25 17.96Q26.25 19.36 26.80 20.13Q27.35 20.90 28.32 20.90L28.32 20.90Q29.31 20.90 29.84 20.15Q30.37 19.40 30.37 17.96L30.37 17.96L30.37 17.51Q30.37 16.09 29.83 15.34Q29.29 14.58 28.31 14.58L28.31 14.58Q27.35 14.58 26.81 15.33Q26.26 16.09 26.25 17.46L26.25 17.46ZM38.77 22L36.31 22L36.31 13.47L38.83 13.47Q39.96 13.47 40.84 13.97Q41.72 14.48 42.20 15.40Q42.68 16.33 42.68 17.52L42.68 17.52L42.68 17.95Q42.68 19.16 42.19 20.08Q41.71 21.00 40.82 21.50Q39.92 22 38.77 22L38.77 22ZM37.80 14.66L37.80 20.82L38.76 20.82Q39.93 20.82 40.55 20.09Q41.18 19.36 41.19 17.99L41.19 17.99L41.19 17.52Q41.19 16.13 40.58 15.40Q39.98 14.66 38.83 14.66L38.83 14.66L37.80 14.66ZM52.72 22L47.14 22L47.14 13.47L52.68 13.47L52.68 14.66L48.62 14.66L48.62 17.02L52.13 17.02L52.13 18.19L48.62 18.19L48.62 20.82L52.72 20.82L52.72 22ZM59.37 22L56.91 22L56.91 13.47L59.43 13.47Q60.56 13.47 61.44 13.97Q62.32 14.48 62.80 15.40Q63.28 16.33 63.28 17.52L63.28 17.52L63.28 17.95Q63.28 19.16 62.79 20.08Q62.31 21.00 61.42 21.50Q60.52 22 59.37 22L59.37 22ZM58.40 14.66L58.40 20.82L59.36 20.82Q60.53 20.82 61.15 20.09Q61.78 19.36 61.79 17.99L61.79 17.99L61.79 17.52Q61.79 16.13 61.19 15.40Q60.58 14.66 59.43 14.66L59.43 14.66L58.40 14.66ZM75.28 22L73.81 22L73.81 13.47L75.28 13.47L75.28 22ZM81.58 22L80.09 22L80.09 13.47L81.58 13.47L85.39 19.54L85.39 13.47L86.86 13.47L86.86 22L85.38 22L81.58 15.95L81.58 22Z" fill="#FFFFFF"/><path class="svg__text" d="M112.67 17.80L112.67 17.80Q112.67 16.54 113.27 15.54Q113.87 14.55 114.93 13.99Q116.00 13.43 117.35 13.43L117.35 13.43Q118.52 13.43 119.46 13.83Q120.40 14.22 121.02 14.97L121.02 14.97L119.51 16.33Q118.66 15.40 117.49 15.40L117.49 15.40Q117.47 15.40 117.47 15.40L117.47 15.40Q116.39 15.40 115.73 16.06Q115.07 16.71 115.07 17.80L115.07 17.80Q115.07 18.50 115.37 19.04Q115.67 19.59 116.21 19.89Q116.75 20.20 117.45 20.20L117.45 20.20Q118.13 20.20 118.73 19.93L118.73 19.93L118.73 17.62L120.83 17.62L120.83 21.10Q120.11 21.61 119.17 21.89Q118.24 22.17 117.30 22.17L117.30 22.17Q115.98 22.17 114.92 21.61Q113.87 21.05 113.27 20.05Q112.67 19.06 112.67 17.80ZM125.39 17.80L125.39 17.80Q125.39 16.55 125.99 15.55Q126.60 14.56 127.66 14.00Q128.72 13.43 130.05 13.43L130.05 13.43Q131.38 13.43 132.45 14.00Q133.51 14.56 134.12 15.55Q134.72 16.55 134.72 17.80L134.72 17.80Q134.72 19.05 134.12 20.04Q133.51 21.04 132.45 21.60Q131.39 22.17 130.05 22.17L130.05 22.17Q128.72 22.17 127.66 21.60Q126.60 21.04 125.99 20.04Q125.39 19.05 125.39 17.80ZM127.79 17.80L127.79 17.80Q127.79 18.51 128.09 19.05Q128.39 19.60 128.91 19.90Q129.42 20.20 130.05 20.20L130.05 20.20Q130.69 20.20 131.21 19.90Q131.72 19.60 132.02 19.05Q132.32 18.51 132.32 17.80L132.32 17.80Q132.32 17.09 132.02 16.54Q131.72 16 131.21 15.70Q130.69 15.40 130.05 15.40L130.05 15.40Q129.42 15.40 128.90 15.70Q128.39 16 128.09 16.54Q127.79 17.09 127.79 17.80Z" fill="#000000" x="111.91"/></svg>