<svg xmlns="http://www.w3.org/2000/svg" width="169.5" height="35" viewBox="0 0 169.5 35"><rect class="svg__rect" x="0" y="0" width="123.45" height="35" fill="#000000"/><rect class="svg__rect" x="121.45" y="0" width="48.04999999999998" height="35" fill="#6AD7E4"/><path class="svg__text" d="M15.70 22L14.22 22L14.22 13.47L17.48 13.47Q18.91 13.47 19.75 14.21Q20.59 14.96 20.59 16.18L20.59 16.18Q20.59 17.44 19.77 18.13Q18.95 18.83 17.46 18.83L17.46 18.83L15.70 18.83L15.70 22ZM15.70 14.66L15.70 17.64L17.48 17.64Q18.27 17.64 18.69 17.27Q19.10 16.90 19.10 16.19L19.10 16.19Q19.10 15.50 18.68 15.09Q18.26 14.68 17.52 14.66L17.52 14.66L15.70 14.66ZM24.61 18.00L24.61 18.00L24.61 17.52Q24.61 16.28 25.05 15.32Q25.49 14.37 26.30 13.86Q27.10 13.35 28.14 13.35Q29.19 13.35 29.99 13.85Q30.80 14.35 31.24 15.29Q31.68 16.23 31.68 17.48L31.68 17.48L31.68 17.96Q31.68 19.21 31.25 20.16Q30.82 21.10 30.01 21.61Q29.21 22.12 28.16 22.12L28.16 22.12Q27.12 22.12 26.31 21.61Q25.50 21.10 25.05 20.17Q24.61 19.23 24.61 18.00ZM26.09 17.46L26.09 17.96Q26.09 19.36 26.64 20.13Q27.18 20.90 28.16 20.90L28.16 20.90Q29.14 20.90 29.67 20.15Q30.20 19.40 30.20 17.96L30.20 17.96L30.20 17.51Q30.20 16.09 29.67 15.34Q29.13 14.58 28.14 14.58L28.14 14.58Q27.18 14.58 26.64 15.33Q26.10 16.09 26.09 17.46L26.09 17.46ZM37.53 22L35.56 13.47L37.03 13.47L38.36 19.88L39.99 13.47L41.23 13.47L42.84 19.89L44.15 13.47L45.62 13.47L43.65 22L42.24 22L40.61 15.77L38.96 22L37.53 22ZM55.27 22L49.70 22L49.70 13.47L55.23 13.47L55.23 14.66L51.18 14.66L51.18 17.02L54.68 17.02L54.68 18.19L51.18 18.19L51.18 20.82L55.27 20.82L55.27 22ZM60.95 22L59.47 22L59.47 13.47L62.47 13.47Q63.95 13.47 64.75 14.13Q65.55 14.79 65.55 16.05L65.55 16.05Q65.55 16.90 65.14 17.48Q64.72 18.06 63.99 18.37L63.99 18.37L65.90 21.92L65.90 22L64.31 22L62.60 18.71L60.95 18.71L60.95 22ZM60.95 14.66L60.95 17.52L62.48 17.52Q63.23 17.52 63.65 17.15Q64.07 16.77 64.07 16.11L64.07 16.11Q64.07 15.43 63.68 15.05Q63.29 14.68 62.52 14.66L62.52 14.66L60.95 14.66ZM75.52 22L69.95 22L69.95 13.47L75.48 13.47L75.48 14.66L71.43 14.66L71.43 17.02L74.93 17.02L74.93 18.19L71.43 18.19L71.43 20.82L75.52 20.82L75.52 22ZM82.17 22L79.72 22L79.72 13.47L82.24 13.47Q83.37 13.47 84.25 13.97Q85.12 14.48 85.60 15.40Q86.08 16.33 86.08 17.52L86.08 17.52L86.08 17.95Q86.08 19.16 85.60 20.08Q85.12 21.00 84.22 21.50Q83.33 22 82.17 22L82.17 22ZM81.20 14.66L81.20 20.82L82.17 20.82Q83.33 20.82 83.96 20.09Q84.58 19.36 84.59 17.99L84.59 17.99L84.59 17.52Q84.59 16.13 83.99 15.40Q83.39 14.66 82.24 14.66L82.24 14.66L81.20 14.66ZM98.09 22L96.61 22L96.61 13.47L98.09 13.47L98.09 22ZM104.38 22L102.90 22L102.90 13.47L104.38 13.47L108.20 19.54L108.20 13.47L109.67 13.47L109.67 22L108.18 22L104.38 15.95L104.38 22Z" fill="#FFFFFF"/><path class="svg__text" d="M135.21 17.80L135.21 17.80Q135.21 16.54 135.81 15.54Q136.41 14.55 137.47 13.99Q138.54 13.43 139.89 13.43L139.89 13.43Q141.06 13.43 142.00 13.83Q142.94 14.22 143.56 14.97L143.56 14.97L142.05 16.33Q141.20 15.40 140.03 15.40L140.03 15.40Q140.01 15.40 140.01 15.40L140.01 15.40Q138.93 15.40 138.27 16.06Q137.61 16.71 137.61 17.80L137.61 17.80Q137.61 18.50 137.91 19.04Q138.21 19.59 138.75 19.89Q139.29 20.20 139.99 20.20L139.99 20.20Q140.67 20.20 141.27 19.93L141.27 19.93L141.27 17.62L143.37 17.62L143.37 21.10Q142.65 21.61 141.71 21.89Q140.78 22.17 139.84 22.17L139.84 22.17Q138.52 22.17 137.46 21.61Q136.41 21.05 135.81 20.05Q135.21 19.06 135.21 17.80ZM147.93 17.80L147.93 17.80Q147.93 16.55 148.53 15.55Q149.14 14.56 150.20 14.00Q151.26 13.43 152.59 13.43L152.59 13.43Q153.92 13.43 154.99 14.00Q156.05 14.56 156.66 15.55Q157.26 16.55 157.26 17.80L157.26 17.80Q157.26 19.05 156.66 20.04Q156.05 21.04 154.99 21.60Q153.93 22.17 152.59 22.17L152.59 22.17Q151.26 22.17 150.20 21.60Q149.14 21.04 148.53 20.04Q147.93 19.05 147.93 17.80ZM150.33 17.80L150.33 17.80Q150.33 18.51 150.63 19.05Q150.93 19.60 151.45 19.90Q151.96 20.20 152.59 20.20L152.59 20.20Q153.23 20.20 153.75 19.90Q154.26 19.60 154.56 19.05Q154.86 18.51 154.86 17.80L154.86 17.80Q154.86 17.09 154.56 16.54Q154.26 16 153.75 15.70Q153.23 15.40 152.59 15.40L152.59 15.40Q151.96 15.40 151.44 15.70Q150.93 16 150.63 16.54Q150.33 17.09 150.33 17.80Z" fill="#000000" x="134.45"/></svg>