<svg xmlns="http://www.w3.org/2000/svg" width="170.08" height="35" viewBox="0 0 170.08 35"><rect class="svg__rect" x="0" y="0" width="124.03" height="35" fill="#000000"/><rect class="svg__rect" x="122.03" y="0" width="48.05000000000001" height="35" fill="#FFFFFF"/><path class="svg__text" d="M13.95 18.19L13.95 18.19L13.95 17.39Q13.95 16.19 14.38 15.27Q14.80 14.35 15.60 13.85Q16.40 13.35 17.45 13.35L17.45 13.35Q18.86 13.35 19.73 14.12Q20.59 14.89 20.73 16.29L20.73 16.29L19.25 16.29Q19.14 15.37 18.71 14.96Q18.28 14.55 17.45 14.55L17.45 14.55Q16.48 14.55 15.97 15.26Q15.45 15.96 15.44 17.33L15.44 17.33L15.44 18.09Q15.44 19.47 15.93 20.20Q16.43 20.92 17.38 20.92L17.38 20.92Q18.25 20.92 18.69 20.53Q19.13 20.14 19.25 19.22L19.25 19.22L20.73 19.22Q20.60 20.59 19.72 21.35Q18.84 22.12 17.38 22.12L17.38 22.12Q16.36 22.12 15.59 21.63Q14.81 21.15 14.39 20.26Q13.97 19.37 13.95 18.19ZM24.77 18.00L24.77 18.00L24.77 17.52Q24.77 16.28 25.21 15.32Q25.65 14.37 26.46 13.86Q27.27 13.35 28.31 13.35Q29.35 13.35 30.16 13.85Q30.96 14.35 31.40 15.29Q31.84 16.23 31.85 17.48L31.85 17.48L31.85 17.96Q31.85 19.21 31.41 20.16Q30.98 21.10 30.18 21.61Q29.37 22.12 28.32 22.12L28.32 22.12Q27.28 22.12 26.47 21.61Q25.66 21.10 25.22 20.17Q24.78 19.23 24.77 18.00ZM26.25 17.46L26.25 17.96Q26.25 19.36 26.80 20.13Q27.35 20.90 28.32 20.90L28.32 20.90Q29.31 20.90 29.84 20.15Q30.37 19.40 30.37 17.96L30.37 17.96L30.37 17.51Q30.37 16.09 29.83 15.34Q29.29 14.58 28.31 14.58L28.31 14.58Q27.35 14.58 26.81 15.33Q26.26 16.09 26.25 17.46L26.25 17.46ZM38.77 22L36.31 22L36.31 13.47L38.83 13.47Q39.96 13.47 40.84 13.97Q41.72 14.48 42.20 15.40Q42.68 16.33 42.68 17.52L42.68 17.52L42.68 17.95Q42.68 19.16 42.19 20.08Q41.71 21.00 40.82 21.50Q39.92 22 38.77 22L38.77 22ZM37.80 14.66L37.80 20.82L38.76 20.82Q39.93 20.82 40.55 20.09Q41.18 19.36 41.19 17.99L41.19 17.99L41.19 17.52Q41.19 16.13 40.58 15.40Q39.98 14.66 38.83 14.66L38.83 14.66L37.80 14.66ZM52.72 22L47.14 22L47.14 13.47L52.68 13.47L52.68 14.66L48.62 14.66L48.62 17.02L52.13 17.02L52.13 18.19L48.62 18.19L48.62 20.82L52.72 20.82L52.72 22ZM59.37 22L56.91 22L56.91 13.47L59.43 13.47Q60.56 13.47 61.44 13.97Q62.32 14.48 62.80 15.40Q63.28 16.33 63.28 17.52L63.28 17.52L63.28 17.95Q63.28 19.16 62.79 20.08Q62.31 21.00 61.42 21.50Q60.52 22 59.37 22L59.37 22ZM58.40 14.66L58.40 20.82L59.36 20.82Q60.53 20.82 61.15 20.09Q61.78 19.36 61.79 17.99L61.79 17.99L61.79 17.52Q61.79 16.13 61.19 15.40Q60.58 14.66 59.43 14.66L59.43 14.66L58.40 14.66ZM75.10 22L73.13 13.47L74.60 13.47L75.93 19.88L77.56 13.47L78.80 13.47L80.41 19.89L81.72 13.47L83.19 13.47L81.22 22L79.81 22L78.18 15.77L76.53 22L75.10 22ZM88.83 22L87.35 22L87.35 13.47L88.83 13.47L88.83 22ZM95.32 14.66L92.69 14.66L92.69 13.47L99.45 13.47L99.45 14.66L96.79 14.66L96.79 22L95.32 22L95.32 14.66ZM104.69 22L103.21 22L103.21 13.47L104.69 13.47L104.69 17.02L108.51 17.02L108.51 13.47L109.98 13.47L109.98 22L108.51 22L108.51 18.21L104.69 18.21L104.69 22Z" fill="#FFFFFF"/><path class="svg__text" d="M135.79 17.80L135.79 17.80Q135.79 16.54 136.39 15.54Q136.99 14.55 138.05 13.99Q139.12 13.43 140.47 13.43L140.47 13.43Q141.64 13.43 142.58 13.83Q143.52 14.22 144.14 14.97L144.14 14.97L142.63 16.33Q141.78 15.40 140.61 15.40L140.61 15.40Q140.59 15.40 140.59 15.40L140.59 15.40Q139.51 15.40 138.85 16.06Q138.19 16.71 138.19 17.80L138.19 17.80Q138.19 18.50 138.49 19.04Q138.79 19.59 139.33 19.89Q139.87 20.20 140.57 20.20L140.57 20.20Q141.25 20.20 141.85 19.93L141.85 19.93L141.85 17.62L143.95 17.62L143.95 21.10Q143.23 21.61 142.29 21.89Q141.36 22.17 140.42 22.17L140.42 22.17Q139.10 22.17 138.04 21.61Q136.99 21.05 136.39 20.05Q135.79 19.06 135.79 17.80ZM148.51 17.80L148.51 17.80Q148.51 16.55 149.11 15.55Q149.72 14.56 150.78 14.00Q151.84 13.43 153.17 13.43L153.17 13.43Q154.50 13.43 155.57 14.00Q156.63 14.56 157.24 15.55Q157.84 16.55 157.84 17.80L157.84 17.80Q157.84 19.05 157.24 20.04Q156.63 21.04 155.57 21.60Q154.51 22.17 153.17 22.17L153.17 22.17Q151.84 22.17 150.78 21.60Q149.72 21.04 149.11 20.04Q148.51 19.05 148.51 17.80ZM150.91 17.80L150.91 17.80Q150.91 18.51 151.21 19.05Q151.51 19.60 152.03 19.90Q152.54 20.20 153.17 20.20L153.17 20.20Q153.81 20.20 154.33 19.90Q154.84 19.60 155.14 19.05Q155.44 18.51 155.44 17.80L155.44 17.80Q155.44 17.09 155.14 16.54Q154.84 16 154.33 15.70Q153.81 15.40 153.17 15.40L153.17 15.40Q152.54 15.40 152.02 15.70Q151.51 16 151.21 16.54Q150.91 17.09 150.91 17.80Z" fill="#000000" x="135.03"/></svg>