<svg xmlns="http://www.w3.org/2000/svg" width="142.82999999999998" height="35" viewBox="0 0 142.82999999999998 35"><rect class="svg__rect" x="0" y="0" width="100.91" height="35" fill="#000000"/><rect class="svg__rect" x="98.91" y="0" width="43.92" height="35" fill="#F0DC4E"/><path class="svg__text" d="M13.95 18.19L13.95 18.19L13.95 17.39Q13.95 16.19 14.38 15.27Q14.80 14.35 15.60 13.85Q16.40 13.35 17.45 13.35L17.45 13.35Q18.86 13.35 19.73 14.12Q20.59 14.89 20.73 16.29L20.73 16.29L19.25 16.29Q19.14 15.37 18.71 14.96Q18.28 14.55 17.45 14.55L17.45 14.55Q16.48 14.55 15.97 15.26Q15.45 15.96 15.44 17.33L15.44 17.33L15.44 18.09Q15.44 19.47 15.93 20.20Q16.43 20.92 17.38 20.92L17.38 20.92Q18.25 20.92 18.69 20.53Q19.13 20.14 19.25 19.22L19.25 19.22L20.73 19.22Q20.60 20.59 19.72 21.35Q18.84 22.12 17.38 22.12L17.38 22.12Q16.36 22.12 15.59 21.63Q14.81 21.15 14.39 20.26Q13.97 19.37 13.95 18.19ZM24.77 18.00L24.77 18.00L24.77 17.52Q24.77 16.28 25.21 15.32Q25.65 14.37 26.46 13.86Q27.27 13.35 28.31 13.35Q29.35 13.35 30.16 13.85Q30.96 14.35 31.40 15.29Q31.84 16.23 31.85 17.48L31.85 17.48L31.85 17.96Q31.85 19.21 31.41 20.16Q30.98 21.10 30.18 21.61Q29.37 22.12 28.32 22.12L28.32 22.12Q27.28 22.12 26.47 21.61Q25.66 21.10 25.22 20.17Q24.78 19.23 24.77 18.00ZM26.25 17.46L26.25 17.96Q26.25 19.36 26.80 20.13Q27.35 20.90 28.32 20.90L28.32 20.90Q29.31 20.90 29.84 20.15Q30.37 19.40 30.37 17.96L30.37 17.96L30.37 17.51Q30.37 16.09 29.83 15.34Q29.29 14.58 28.31 14.58L28.31 14.58Q27.35 14.58 26.81 15.33Q26.26 16.09 26.25 17.46L26.25 17.46ZM38.77 22L36.31 22L36.31 13.47L38.83 13.47Q39.96 13.47 40.84 13.97Q41.72 14.48 42.20 15.40Q42.68 16.33 42.68 17.52L42.68 17.52L42.68 17.95Q42.68 19.16 42.19 20.08Q41.71 21.00 40.82 21.50Q39.92 22 38.77 22L38.77 22ZM37.80 14.66L37.80 20.82L38.76 20.82Q39.93 20.82 40.55 20.09Q41.18 19.36 41.19 17.99L41.19 17.99L41.19 17.52Q41.19 16.13 40.58 15.40Q39.98 14.66 38.83 14.66L38.83 14.66L37.80 14.66ZM52.72 22L47.14 22L47.14 13.47L52.68 13.47L52.68 14.66L48.62 14.66L48.62 17.02L52.13 17.02L52.13 18.19L48.62 18.19L48.62 20.82L52.72 20.82L52.72 22ZM59.37 22L56.91 22L56.91 13.47L59.43 13.47Q60.56 13.47 61.44 13.97Q62.32 14.48 62.80 15.40Q63.28 16.33 63.28 17.52L63.28 17.52L63.28 17.95Q63.28 19.16 62.79 20.08Q62.31 21.00 61.42 21.50Q60.52 22 59.37 22L59.37 22ZM58.40 14.66L58.40 20.82L59.36 20.82Q60.53 20.82 61.15 20.09Q61.78 19.36 61.79 17.99L61.79 17.99L61.79 17.52Q61.79 16.13 61.19 15.40Q60.58 14.66 59.43 14.66L59.43 14.66L58.40 14.66ZM75.28 22L73.81 22L73.81 13.47L75.28 13.47L75.28 22ZM81.58 22L80.09 22L80.09 13.47L81.58 13.47L85.39 19.54L85.39 13.47L86.86 13.47L86.86 22L85.38 22L81.58 15.95L81.58 22Z" fill="#FFFFFF"/><path class="svg__text" d="M112.02 20.93L112.02 20.93L113.31 19.40Q113.98 20.27 114.76 20.27L114.76 20.27Q114.76 20.27 114.77 20.27L114.77 20.27Q115.28 20.27 115.55 19.96Q115.82 19.65 115.82 19.05L115.82 19.05L115.82 15.44L112.92 15.44L112.92 13.60L118.18 13.60L118.18 18.91Q118.18 20.54 117.35 21.36Q116.53 22.17 114.94 22.17L114.94 22.17Q114.01 22.17 113.26 21.85Q112.50 21.53 112.02 20.93ZM122.68 21.24L122.68 21.24L123.46 19.49Q124.02 19.86 124.76 20.09Q125.51 20.32 126.23 20.32L126.23 20.32Q127.59 20.32 127.60 19.64L127.60 19.64Q127.60 19.28 127.21 19.11Q126.82 18.93 125.95 18.74L125.95 18.74Q125.00 18.53 124.37 18.30Q123.73 18.06 123.28 17.55Q122.82 17.03 122.82 16.16L122.82 16.16Q122.82 15.39 123.24 14.77Q123.66 14.15 124.50 13.79Q125.33 13.43 126.54 13.43L126.54 13.43Q127.37 13.43 128.17 13.62Q128.98 13.80 129.59 14.17L129.59 14.17L128.86 15.93Q127.66 15.28 126.53 15.28L126.53 15.28Q125.82 15.28 125.50 15.49Q125.17 15.70 125.17 16.04L125.17 16.04Q125.17 16.37 125.56 16.54Q125.94 16.71 126.79 16.89L126.79 16.89Q127.75 17.10 128.38 17.33Q129.01 17.56 129.47 18.07Q129.94 18.58 129.94 19.46L129.94 19.46Q129.94 20.21 129.52 20.83Q129.10 21.44 128.26 21.80Q127.42 22.17 126.22 22.17L126.22 22.17Q125.20 22.17 124.24 21.92Q123.28 21.67 122.68 21.24Z" fill="#000000" x="111.91"/></svg>