<svg xmlns="http://www.w3.org/2000/svg" width="165.37" height="35" viewBox="0 0 165.37 35"><rect class="svg__rect" x="0" y="0" width="123.45" height="35" fill="#000000"/><rect class="svg__rect" x="121.45" y="0" width="43.91999999999999" height="35" fill="#F0DC4E"/><path class="svg__text" d="M15.70 22L14.22 22L14.22 13.47L17.48 13.47Q18.91 13.47 19.75 14.21Q20.59 14.96 20.59 16.18L20.59 16.18Q20.59 17.44 19.77 18.13Q18.95 18.83 17.46 18.83L17.46 18.83L15.70 18.83L15.70 22ZM15.70 14.66L15.70 17.64L17.48 17.64Q18.27 17.64 18.69 17.27Q19.10 16.90 19.10 16.19L19.10 16.19Q19.10 15.50 18.68 15.09Q18.26 14.68 17.52 14.66L17.52 14.66L15.70 14.66ZM24.61 18.00L24.61 18.00L24.61 17.52Q24.61 16.28 25.05 15.32Q25.49 14.37 26.30 13.86Q27.10 13.35 28.14 13.35Q29.19 13.35 29.99 13.85Q30.80 14.35 31.24 15.29Q31.68 16.23 31.68 17.48L31.68 17.48L31.68 17.96Q31.68 19.21 31.25 20.16Q30.82 21.10 30.01 21.61Q29.21 22.12 28.16 22.12L28.16 22.12Q27.12 22.12 26.31 21.61Q25.50 21.10 25.05 20.17Q24.61 19.23 24.61 18.00ZM26.09 17.46L26.09 17.96Q26.09 19.36 26.64 20.13Q27.18 20.90 28.16 20.90L28.16 20.90Q29.14 20.90 29.67 20.15Q30.20 19.40 30.20 17.96L30.20 17.96L30.20 17.51Q30.20 16.09 29.67 15.34Q29.13 14.58 28.14 14.58L28.14 14.58Q27.18 14.58 26.64 15.33Q26.10 16.09 26.09 17.46L26.09 17.46ZM37.53 22L35.56 13.47L37.03 13.47L38.36 19.88L39.99 13.47L41.23 13.47L42.84 19.89L44.15 13.47L45.62 13.47L43.65 22L42.24 22L40.61 15.77L38.96 22L37.53 22ZM55.27 22L49.70 22L49.70 13.47L55.23 13.47L55.23 14.66L51.18 14.66L51.18 17.02L54.68 17.02L54.68 18.19L51.18 18.19L51.18 20.82L55.27 20.82L55.27 22ZM60.95 22L59.47 22L59.47 13.47L62.47 13.47Q63.95 13.47 64.75 14.13Q65.55 14.79 65.55 16.05L65.55 16.05Q65.55 16.90 65.14 17.48Q64.72 18.06 63.99 18.37L63.99 18.37L65.90 21.92L65.90 22L64.31 22L62.60 18.71L60.95 18.71L60.95 22ZM60.95 14.66L60.95 17.52L62.48 17.52Q63.23 17.52 63.65 17.15Q64.07 16.77 64.07 16.11L64.07 16.11Q64.07 15.43 63.68 15.05Q63.29 14.68 62.52 14.66L62.52 14.66L60.95 14.66ZM75.52 22L69.95 22L69.95 13.47L75.48 13.47L75.48 14.66L71.43 14.66L71.43 17.02L74.93 17.02L74.93 18.19L71.43 18.19L71.43 20.82L75.52 20.82L75.52 22ZM82.17 22L79.72 22L79.72 13.47L82.24 13.47Q83.37 13.47 84.25 13.97Q85.12 14.48 85.60 15.40Q86.08 16.33 86.08 17.52L86.08 17.52L86.08 17.95Q86.08 19.16 85.60 20.08Q85.12 21.00 84.22 21.50Q83.33 22 82.17 22L82.17 22ZM81.20 14.66L81.20 20.82L82.17 20.82Q83.33 20.82 83.96 20.09Q84.58 19.36 84.59 17.99L84.59 17.99L84.59 17.52Q84.59 16.13 83.99 15.40Q83.39 14.66 82.24 14.66L82.24 14.66L81.20 14.66ZM98.09 22L96.61 22L96.61 13.47L98.09 13.47L98.09 22ZM104.38 22L102.90 22L102.90 13.47L104.38 13.47L108.20 19.54L108.20 13.47L109.67 13.47L109.67 22L108.18 22L104.38 15.95L104.38 22Z" fill="#FFFFFF"/><path class="svg__text" d="M134.56 20.93L134.56 20.93L135.85 19.40Q136.52 20.27 137.30 20.27L137.30 20.27Q137.30 20.27 137.31 20.27L137.31 20.27Q137.82 20.27 138.09 19.96Q138.36 19.65 138.36 19.05L138.36 19.05L138.36 15.44L135.46 15.44L135.46 13.60L140.72 13.60L140.72 18.91Q140.72 20.54 139.89 21.36Q139.07 22.17 137.48 22.17L137.48 22.17Q136.55 22.17 135.80 21.85Q135.04 21.53 134.56 20.93ZM145.22 21.24L145.22 21.24L146.00 19.49Q146.56 19.86 147.30 20.09Q148.05 20.32 148.77 20.32L148.77 20.32Q150.13 20.32 150.14 19.64L150.14 19.64Q150.14 19.28 149.75 19.11Q149.36 18.93 148.49 18.74L148.49 18.74Q147.54 18.53 146.91 18.30Q146.27 18.06 145.82 17.55Q145.36 17.03 145.36 16.16L145.36 16.16Q145.36 15.39 145.78 14.77Q146.20 14.15 147.04 13.79Q147.87 13.43 149.08 13.43L149.08 13.43Q149.91 13.43 150.71 13.62Q151.52 13.80 152.13 14.17L152.13 14.17L151.40 15.93Q150.20 15.28 149.07 15.28L149.07 15.28Q148.36 15.28 148.04 15.49Q147.71 15.70 147.71 16.04L147.71 16.04Q147.71 16.37 148.10 16.54Q148.48 16.71 149.33 16.89L149.33 16.89Q150.29 17.10 150.92 17.33Q151.55 17.56 152.01 18.07Q152.48 18.58 152.48 19.46L152.48 19.46Q152.48 20.21 152.06 20.83Q151.64 21.44 150.80 21.80Q149.96 22.17 148.76 22.17L148.76 22.17Q147.74 22.17 146.78 21.92Q145.82 21.67 145.22 21.24Z" fill="#000000" x="134.45"/></svg>