<svg xmlns="http://www.w3.org/2000/svg" width="165.95000000000002" height="35" viewBox="0 0 165.95000000000002 35"><rect class="svg__rect" x="0" y="0" width="124.03" height="35" fill="#000000"/><rect class="svg__rect" x="122.03" y="0" width="43.920000000000016" height="35" fill="#FFFFFF"/><path class="svg__text" d="M13.95 18.19L13.95 18.19L13.95 17.39Q13.95 16.19 14.38 15.27Q14.80 14.35 15.60 13.85Q16.40 13.35 17.45 13.35L17.45 13.35Q18.86 13.35 19.73 14.12Q20.59 14.89 20.73 16.29L20.73 16.29L19.25 16.29Q19.14 15.37 18.71 14.96Q18.28 14.55 17.45 14.55L17.45 14.55Q16.48 14.55 15.97 15.26Q15.45 15.96 15.44 17.33L15.44 17.33L15.44 18.09Q15.44 19.47 15.93 20.20Q16.43 20.92 17.38 20.92L17.38 20.92Q18.25 20.92 18.69 20.53Q19.13 20.14 19.25 19.22L19.25 19.22L20.73 19.22Q20.60 20.59 19.72 21.35Q18.84 22.12 17.38 22.12L17.38 22.12Q16.36 22.12 15.59 21.63Q14.81 21.15 14.39 20.26Q13.97 19.37 13.95 18.19ZM24.77 18.00L24.77 18.00L24.77 17.52Q24.77 16.28 25.21 15.32Q25.65 14.37 26.46 13.86Q27.27 13.35 28.31 13.35Q29.35 13.35 30.16 13.85Q30.96 14.35 31.40 15.29Q31.84 16.23 31.85 17.48L31.85 17.48L31.85 17.96Q31.85 19.21 31.41 20.16Q30.98 21.10 30.18 21.61Q29.37 22.12 28.32 22.12L28.32 22.12Q27.28 22.12 26.47 21.61Q25.66 21.10 25.22 20.17Q24.78 19.23 24.77 18.00ZM26.25 17.46L26.25 17.96Q26.25 19.36 26.80 20.13Q27.35 20.90 28.32 20.90L28.32 20.90Q29.31 20.90 29.84 20.15Q30.37 19.40 30.37 17.96L30.37 17.96L30.37 17.51Q30.37 16.09 29.83 15.34Q29.29 14.58 28.31 14.58L28.31 14.58Q27.35 14.58 26.81 15.33Q26.26 16.09 26.25 17.46L26.25 17.46ZM38.77 22L36.31 22L36.31 13.47L38.83 13.47Q39.96 13.47 40.84 13.97Q41.72 14.48 42.20 15.40Q42.68 16.33 42.68 17.52L42.68 17.52L42.68 17.95Q42.68 19.16 42.19 20.08Q41.71 21.00 40.82 21.50Q39.92 22 38.77 22L38.77 22ZM37.80 14.66L37.80 20.82L38.76 20.82Q39.93 20.82 40.55 20.09Q41.18 19.36 41.19 17.99L41.19 17.99L41.19 17.52Q41.19 16.13 40.58 15.40Q39.98 14.66 38.83 14.66L38.83 14.66L37.80 14.66ZM52.72 22L47.14 22L47.14 13.47L52.68 13.47L52.68 14.66L48.62 14.66L48.62 17.02L52.13 17.02L52.13 18.19L48.62 18.19L48.62 20.82L52.72 20.82L52.72 22ZM59.37 22L56.91 22L56.91 13.47L59.43 13.47Q60.56 13.47 61.44 13.97Q62.32 14.48 62.80 15.40Q63.28 16.33 63.28 17.52L63.28 17.52L63.28 17.95Q63.28 19.16 62.79 20.08Q62.31 21.00 61.42 21.50Q60.52 22 59.37 22L59.37 22ZM58.40 14.66L58.40 20.82L59.36 20.82Q60.53 20.82 61.15 20.09Q61.78 19.36 61.79 17.99L61.79 17.99L61.79 17.52Q61.79 16.13 61.19 15.40Q60.58 14.66 59.43 14.66L59.43 14.66L58.40 14.66ZM75.10 22L73.13 13.47L74.60 13.47L75.93 19.88L77.56 13.47L78.80 13.47L80.41 19.89L81.72 13.47L83.19 13.47L81.22 22L79.81 22L78.18 15.77L76.53 22L75.10 22ZM88.83 22L87.35 22L87.35 13.47L88.83 13.47L88.83 22ZM95.32 14.66L92.69 14.66L92.69 13.47L99.45 13.47L99.45 14.66L96.79 14.66L96.79 22L95.32 22L95.32 14.66ZM104.69 22L103.21 22L103.21 13.47L104.69 13.47L104.69 17.02L108.51 17.02L108.51 13.47L109.98 13.47L109.98 22L108.51 22L108.51 18.21L104.69 18.21L104.69 22Z" fill="#FFFFFF"/><path class="svg__text" d="M135.14 20.93L135.14 20.93L136.43 19.40Q137.10 20.27 137.88 20.27L137.88 20.27Q137.88 20.27 137.89 20.27L137.89 20.27Q138.40 20.27 138.67 19.96Q138.94 19.65 138.94 19.05L138.94 19.05L138.94 15.44L136.04 15.44L136.04 13.60L141.30 13.60L141.30 18.91Q141.30 20.54 140.47 21.36Q139.65 22.17 138.06 22.17L138.06 22.17Q137.13 22.17 136.38 21.85Q135.62 21.53 135.14 20.93ZM145.80 21.24L145.80 21.24L146.58 19.49Q147.14 19.86 147.88 20.09Q148.63 20.32 149.35 20.32L149.35 20.32Q150.71 20.32 150.72 19.64L150.72 19.64Q150.72 19.28 150.33 19.11Q149.94 18.93 149.07 18.74L149.07 18.74Q148.12 18.53 147.49 18.30Q146.85 18.06 146.40 17.55Q145.94 17.03 145.94 16.16L145.94 16.16Q145.94 15.39 146.36 14.77Q146.78 14.15 147.62 13.79Q148.45 13.43 149.66 13.43L149.66 13.43Q150.49 13.43 151.29 13.62Q152.10 13.80 152.71 14.17L152.71 14.17L151.98 15.93Q150.78 15.28 149.65 15.28L149.65 15.28Q148.94 15.28 148.62 15.49Q148.29 15.70 148.29 16.04L148.29 16.04Q148.29 16.37 148.68 16.54Q149.06 16.71 149.91 16.89L149.91 16.89Q150.87 17.10 151.50 17.33Q152.13 17.56 152.59 18.07Q153.06 18.58 153.06 19.46L153.06 19.46Q153.06 20.21 152.64 20.83Q152.22 21.44 151.38 21.80Q150.54 22.17 149.34 22.17L149.34 22.17Q148.32 22.17 147.36 21.92Q146.40 21.67 145.80 21.24Z" fill="#000000" x="135.03"/></svg>