<svg xmlns="http://www.w3.org/2000/svg" width="166.93" height="35" viewBox="0 0 166.93 35"><rect class="svg__rect" x="0" y="0" width="64.89" height="35" fill="#000000"/><rect class="svg__rect" x="62.89" y="0" width="104.04" height="35" fill="#FFFFFF"/><path class="svg__text" d="M14.08 19.16L14.08 19.16L14.08 13.47L15.56 13.47L15.56 19.18Q15.56 20.03 15.99 20.48Q16.43 20.93 17.27 20.93L17.27 20.93Q18.98 20.93 18.98 19.13L18.98 19.13L18.98 13.47L20.46 13.47L20.46 19.17Q20.46 20.53 19.59 21.32Q18.72 22.12 17.27 22.12L17.27 22.12Q15.81 22.12 14.94 21.33Q14.08 20.55 14.08 19.16ZM24.59 19.42L24.59 19.42L26.08 19.42Q26.08 20.15 26.56 20.55Q27.04 20.95 27.93 20.95L27.93 20.95Q28.71 20.95 29.10 20.63Q29.49 20.32 29.49 19.80L29.49 19.80Q29.49 19.24 29.09 18.94Q28.70 18.63 27.66 18.32Q26.63 18.01 26.02 17.63L26.02 17.63Q24.86 16.90 24.86 15.72L24.86 15.72Q24.86 14.69 25.70 14.02Q26.54 13.35 27.88 13.35L27.88 13.35Q28.77 13.35 29.47 13.68Q30.17 14.01 30.56 14.61Q30.96 15.22 30.96 15.96L30.96 15.96L29.49 15.96Q29.49 15.29 29.07 14.91Q28.65 14.54 27.87 14.54L27.87 14.54Q27.14 14.54 26.74 14.85Q26.34 15.16 26.34 15.71L26.34 15.71Q26.34 16.18 26.77 16.50Q27.21 16.81 28.20 17.10Q29.20 17.40 29.80 17.78Q30.41 18.16 30.69 18.65Q30.97 19.13 30.97 19.79L30.97 19.79Q30.97 20.86 30.15 21.49Q29.33 22.12 27.93 22.12L27.93 22.12Q27.01 22.12 26.23 21.77Q25.46 21.43 25.02 20.83Q24.59 20.22 24.59 19.42ZM40.84 22L35.26 22L35.26 13.47L40.80 13.47L40.80 14.66L36.74 14.66L36.74 17.02L40.24 17.02L40.24 18.19L36.74 18.19L36.74 20.82L40.84 20.82L40.84 22ZM44.60 19.42L44.60 19.42L46.08 19.42Q46.08 20.15 46.56 20.55Q47.04 20.95 47.94 20.95L47.94 20.95Q48.71 20.95 49.10 20.63Q49.49 20.32 49.49 19.80L49.49 19.80Q49.49 19.24 49.10 18.94Q48.70 18.63 47.67 18.32Q46.64 18.01 46.03 17.63L46.03 17.63Q44.86 16.90 44.86 15.72L44.86 15.72Q44.86 14.69 45.70 14.02Q46.54 13.35 47.89 13.35L47.89 13.35Q48.78 13.35 49.47 13.68Q50.17 14.01 50.57 14.61Q50.97 15.22 50.97 15.96L50.97 15.96L49.49 15.96Q49.49 15.29 49.07 14.91Q48.65 14.54 47.87 14.54L47.87 14.54Q47.15 14.54 46.75 14.85Q46.34 15.16 46.34 15.71L46.34 15.71Q46.34 16.18 46.78 16.50Q47.21 16.81 48.21 17.10Q49.20 17.40 49.81 17.78Q50.41 18.16 50.69 18.65Q50.97 19.13 50.97 19.79L50.97 19.79Q50.97 20.86 50.16 21.49Q49.34 22.12 47.94 22.12L47.94 22.12Q47.01 22.12 46.24 21.77Q45.46 21.43 45.03 20.83Q44.60 20.22 44.60 19.42Z" fill="#FFFFFF"/><path class="svg__text" d="M83.82 22L77.08 22L77.08 13.60L83.67 13.60L83.67 15.44L79.43 15.44L79.43 16.85L83.17 16.85L83.17 18.63L79.43 18.63L79.43 20.17L83.82 20.17L83.82 22ZM90.48 22L87.77 22L90.82 17.75L87.89 13.60L90.57 13.60L92.25 16.02L93.91 13.60L96.48 13.60L93.55 17.66L96.67 22L93.94 22L92.20 19.40L90.48 22ZM103.33 22L100.95 22L100.95 13.60L104.80 13.60Q105.94 13.60 106.78 13.98Q107.62 14.35 108.07 15.06Q108.53 15.76 108.53 16.71L108.53 16.71Q108.53 17.66 108.07 18.35Q107.62 19.05 106.78 19.42Q105.94 19.80 104.80 19.80L104.80 19.80L103.33 19.80L103.33 22ZM103.33 15.47L103.33 17.93L104.65 17.93Q105.38 17.93 105.76 17.61Q106.13 17.29 106.13 16.71L106.13 16.71Q106.13 16.12 105.76 15.80Q105.38 15.47 104.65 15.47L104.65 15.47L103.33 15.47ZM115.66 22L113.28 22L113.28 13.60L117.13 13.60Q118.27 13.60 119.11 13.98Q119.95 14.35 120.40 15.06Q120.86 15.76 120.86 16.71L120.86 16.71Q120.86 17.62 120.43 18.30Q120.00 18.98 119.21 19.36L119.21 19.36L121.02 22L118.48 22L116.96 19.77L115.66 19.77L115.66 22ZM115.66 15.47L115.66 17.93L116.98 17.93Q117.71 17.93 118.08 17.61Q118.46 17.29 118.46 16.71L118.46 16.71Q118.46 16.12 118.08 15.79Q117.71 15.47 116.98 15.47L116.98 15.47L115.66 15.47ZM132.39 22L125.65 22L125.65 13.60L132.24 13.60L132.24 15.44L128.00 15.44L128.00 16.85L131.73 16.85L131.73 18.63L128.00 18.63L128.00 20.17L132.39 20.17L132.39 22ZM136.61 21.24L136.61 21.24L137.39 19.49Q137.95 19.86 138.70 20.09Q139.44 20.32 140.16 20.32L140.16 20.32Q141.53 20.32 141.53 19.64L141.53 19.64Q141.53 19.28 141.14 19.11Q140.75 18.93 139.88 18.74L139.88 18.74Q138.94 18.53 138.30 18.30Q137.66 18.06 137.21 17.55Q136.76 17.03 136.76 16.16L136.76 16.16Q136.76 15.39 137.17 14.77Q137.59 14.15 138.43 13.79Q139.26 13.43 140.47 13.43L140.47 13.43Q141.30 13.43 142.10 13.62Q142.91 13.80 143.52 14.17L143.52 14.17L142.79 15.93Q141.59 15.28 140.46 15.28L140.46 15.28Q139.75 15.28 139.43 15.49Q139.11 15.70 139.11 16.04L139.11 16.04Q139.11 16.37 139.49 16.54Q139.87 16.71 140.72 16.89L140.72 16.89Q141.68 17.10 142.31 17.33Q142.94 17.56 143.41 18.07Q143.87 18.58 143.87 19.46L143.87 19.46Q143.87 20.21 143.45 20.83Q143.03 21.44 142.19 21.80Q141.35 22.17 140.15 22.17L140.15 22.17Q139.13 22.17 138.17 21.92Q137.21 21.67 136.61 21.24ZM147.86 21.24L147.86 21.24L148.64 19.49Q149.20 19.86 149.95 20.09Q150.69 20.32 151.41 20.32L151.41 20.32Q152.78 20.32 152.78 19.64L152.78 19.64Q152.78 19.28 152.39 19.11Q152.00 18.93 151.13 18.74L151.13 18.74Q150.19 18.53 149.55 18.30Q148.91 18.06 148.46 17.55Q148.01 17.03 148.01 16.16L148.01 16.16Q148.01 15.39 148.42 14.77Q148.84 14.15 149.68 13.79Q150.51 13.43 151.72 13.43L151.72 13.43Q152.55 13.43 153.35 13.62Q154.16 13.80 154.77 14.17L154.77 14.17L154.04 15.93Q152.84 15.28 151.71 15.28L151.71 15.28Q151.00 15.28 150.68 15.49Q150.36 15.70 150.36 16.04L150.36 16.04Q150.36 16.37 150.74 16.54Q151.12 16.71 151.97 16.89L151.97 16.89Q152.93 17.10 153.56 17.33Q154.19 17.56 154.66 18.07Q155.12 18.58 155.12 19.46L155.12 19.46Q155.12 20.21 154.70 20.83Q154.28 21.44 153.44 21.80Q152.60 22.17 151.40 22.17L151.40 22.17Q150.38 22.17 149.42 21.92Q148.46 21.67 147.86 21.24Z" fill="#000000" x="75.89"/></svg>