<svg xmlns="http://www.w3.org/2000/svg" width="202.14" height="35" viewBox="0 0 202.14 35"><rect class="svg__rect" x="0" y="0" width="64.89" height="35" fill="#000000"/><rect class="svg__rect" x="62.89" y="0" width="139.25" height="35" fill="#FF5E00"/><path class="svg__text" d="M14.08 19.16L14.08 19.16L14.08 13.47L15.56 13.47L15.56 19.18Q15.56 20.03 15.99 20.48Q16.43 20.93 17.27 20.93L17.27 20.93Q18.98 20.93 18.98 19.13L18.98 19.13L18.98 13.47L20.46 13.47L20.46 19.17Q20.46 20.53 19.59 21.32Q18.72 22.12 17.27 22.12L17.27 22.12Q15.81 22.12 14.94 21.33Q14.08 20.55 14.08 19.16ZM24.59 19.42L24.59 19.42L26.08 19.42Q26.08 20.15 26.56 20.55Q27.04 20.95 27.93 20.95L27.93 20.95Q28.71 20.95 29.10 20.63Q29.49 20.32 29.49 19.80L29.49 19.80Q29.49 19.24 29.09 18.94Q28.70 18.63 27.66 18.32Q26.63 18.01 26.02 17.63L26.02 17.63Q24.86 16.90 24.86 15.72L24.86 15.72Q24.86 14.69 25.70 14.02Q26.54 13.35 27.88 13.35L27.88 13.35Q28.77 13.35 29.47 13.68Q30.17 14.01 30.56 14.61Q30.96 15.22 30.96 15.96L30.96 15.96L29.49 15.96Q29.49 15.29 29.07 14.91Q28.65 14.54 27.87 14.54L27.87 14.54Q27.14 14.54 26.74 14.85Q26.34 15.16 26.34 15.71L26.34 15.71Q26.34 16.18 26.77 16.50Q27.21 16.81 28.20 17.10Q29.20 17.40 29.80 17.78Q30.41 18.16 30.69 18.65Q30.97 19.13 30.97 19.79L30.97 19.79Q30.97 20.86 30.15 21.49Q29.33 22.12 27.93 22.12L27.93 22.12Q27.01 22.12 26.23 21.77Q25.46 21.43 25.02 20.83Q24.59 20.22 24.59 19.42ZM40.84 22L35.26 22L35.26 13.47L40.80 13.47L40.80 14.66L36.74 14.66L36.74 17.02L40.24 17.02L40.24 18.19L36.74 18.19L36.74 20.82L40.84 20.82L40.84 22ZM44.60 19.42L44.60 19.42L46.08 19.42Q46.08 20.15 46.56 20.55Q47.04 20.95 47.94 20.95L47.94 20.95Q48.71 20.95 49.10 20.63Q49.49 20.32 49.49 19.80L49.49 19.80Q49.49 19.24 49.10 18.94Q48.70 18.63 47.67 18.32Q46.64 18.01 46.03 17.63L46.03 17.63Q44.86 16.90 44.86 15.72L44.86 15.72Q44.86 14.69 45.70 14.02Q46.54 13.35 47.89 13.35L47.89 13.35Q48.78 13.35 49.47 13.68Q50.17 14.01 50.57 14.61Q50.97 15.22 50.97 15.96L50.97 15.96L49.49 15.96Q49.49 15.29 49.07 14.91Q48.65 14.54 47.87 14.54L47.87 14.54Q47.15 14.54 46.75 14.85Q46.34 15.16 46.34 15.71L46.34 15.71Q46.34 16.18 46.78 16.50Q47.21 16.81 48.21 17.10Q49.20 17.40 49.81 17.78Q50.41 18.16 50.69 18.65Q50.97 19.13 50.97 19.79L50.97 19.79Q50.97 20.86 50.16 21.49Q49.34 22.12 47.94 22.12L47.94 22.12Q47.01 22.12 46.24 21.77Q45.46 21.43 45.03 20.83Q44.60 20.22 44.60 19.42Z" fill="#FFFFFF"/><path class="svg__text" d="M79.46 22L77.08 22L77.08 13.60L80.92 13.60Q82.06 13.60 82.90 13.98Q83.74 14.35 84.20 15.06Q84.65 15.76 84.65 16.71L84.65 16.71Q84.65 17.62 84.23 18.30Q83.80 18.98 83.01 19.36L83.01 19.36L84.82 22L82.28 22L80.75 19.77L79.46 19.77L79.46 22ZM79.46 15.47L79.46 17.93L80.78 17.93Q81.51 17.93 81.88 17.61Q82.25 17.29 82.25 16.71L82.25 16.71Q82.25 16.12 81.88 15.79Q81.51 15.47 80.78 15.47L80.78 15.47L79.46 15.47ZM90.86 22L88.43 22L92.14 13.60L94.49 13.60L98.20 22L95.73 22L95.07 20.37L91.52 20.37L90.86 22ZM93.30 15.93L92.21 18.61L94.37 18.61L93.30 15.93ZM104.69 22L102.36 22L102.36 13.60L104.31 13.60L108.02 18.07L108.02 13.60L110.35 13.60L110.35 22L108.40 22L104.69 17.52L104.69 22ZM119.48 22L115.51 22L115.51 13.60L119.48 13.60Q120.86 13.60 121.93 14.12Q123.00 14.63 123.59 15.58Q124.18 16.53 124.18 17.80L124.18 17.80Q124.18 19.07 123.59 20.02Q123.00 20.97 121.93 21.48Q120.86 22 119.48 22L119.48 22ZM117.89 15.50L117.89 20.10L119.39 20.10Q120.47 20.10 121.12 19.49Q121.77 18.88 121.77 17.80L121.77 17.80Q121.77 16.72 121.12 16.11Q120.47 15.50 119.39 15.50L119.39 15.50L117.89 15.50ZM128.48 17.80L128.48 17.80Q128.48 16.55 129.08 15.55Q129.68 14.56 130.75 14.00Q131.81 13.43 133.14 13.43L133.14 13.43Q134.47 13.43 135.53 14.00Q136.60 14.56 137.20 15.55Q137.81 16.55 137.81 17.80L137.81 17.80Q137.81 19.05 137.20 20.04Q136.60 21.04 135.54 21.60Q134.48 22.17 133.14 22.17L133.14 22.17Q131.81 22.17 130.75 21.60Q129.68 21.04 129.08 20.04Q128.48 19.05 128.48 17.80ZM130.87 17.80L130.87 17.80Q130.87 18.51 131.17 19.05Q131.48 19.60 131.99 19.90Q132.51 20.20 133.14 20.20L133.14 20.20Q133.78 20.20 134.29 19.90Q134.81 19.60 135.11 19.05Q135.41 18.51 135.41 17.80L135.41 17.80Q135.41 17.09 135.11 16.54Q134.81 16 134.29 15.70Q133.78 15.40 133.14 15.40L133.14 15.40Q132.50 15.40 131.99 15.70Q131.48 16 131.17 16.54Q130.87 17.09 130.87 17.80ZM144.74 22L142.54 22L142.54 13.60L144.50 13.60L147.45 18.45L150.33 13.60L152.28 13.60L152.31 22L150.13 22L150.10 17.55L147.94 21.17L146.89 21.17L144.74 17.67L144.74 22ZM159.85 22L157.47 22L157.47 13.60L164.06 13.60L164.06 15.44L159.85 15.44L159.85 17.28L163.56 17.28L163.56 19.12L159.85 19.12L159.85 22ZM168.23 17.80L168.23 17.80Q168.23 16.55 168.83 15.55Q169.43 14.56 170.50 14.00Q171.56 13.43 172.89 13.43L172.89 13.43Q174.22 13.43 175.28 14.00Q176.35 14.56 176.95 15.55Q177.56 16.55 177.56 17.80L177.56 17.80Q177.56 19.05 176.95 20.04Q176.35 21.04 175.29 21.60Q174.23 22.17 172.89 22.17L172.89 22.17Q171.56 22.17 170.50 21.60Q169.43 21.04 168.83 20.04Q168.23 19.05 168.23 17.80ZM170.62 17.80L170.62 17.80Q170.62 18.51 170.92 19.05Q171.23 19.60 171.74 19.90Q172.26 20.20 172.89 20.20L172.89 20.20Q173.53 20.20 174.04 19.90Q174.56 19.60 174.86 19.05Q175.16 18.51 175.16 17.80L175.16 17.80Q175.16 17.09 174.86 16.54Q174.56 16 174.04 15.70Q173.53 15.40 172.89 15.40L172.89 15.40Q172.25 15.40 171.74 15.70Q171.23 16 170.92 16.54Q170.62 17.09 170.62 17.80ZM184.14 22L181.43 22L184.49 17.75L181.56 13.60L184.23 13.60L185.92 16.02L187.57 13.60L190.14 13.60L187.21 17.66L190.33 22L187.60 22L185.86 19.40L184.14 22Z" fill="#000000" x="75.89"/></svg>