<svg xmlns="http://www.w3.org/2000/svg" width="168.17000000000002" height="35" viewBox="0 0 168.17000000000002 35"><rect class="svg__rect" x="0" y="0" width="100.91" height="35" fill="#000000"/><rect class="svg__rect" x="98.91" y="0" width="69.26000000000002" height="35" fill="#F64D00"/><path class="svg__text" d="M13.95 18.19L13.95 18.19L13.95 17.39Q13.95 16.19 14.38 15.27Q14.80 14.35 15.60 13.85Q16.40 13.35 17.45 13.35L17.45 13.35Q18.86 13.35 19.73 14.12Q20.59 14.89 20.73 16.29L20.73 16.29L19.25 16.29Q19.14 15.37 18.71 14.96Q18.28 14.55 17.45 14.55L17.45 14.55Q16.48 14.55 15.97 15.26Q15.45 15.96 15.44 17.33L15.44 17.33L15.44 18.09Q15.44 19.47 15.93 20.20Q16.43 20.92 17.38 20.92L17.38 20.92Q18.25 20.92 18.69 20.53Q19.13 20.14 19.25 19.22L19.25 19.22L20.73 19.22Q20.60 20.59 19.72 21.35Q18.84 22.12 17.38 22.12L17.38 22.12Q16.36 22.12 15.59 21.63Q14.81 21.15 14.39 20.26Q13.97 19.37 13.95 18.19ZM24.77 18.00L24.77 18.00L24.77 17.52Q24.77 16.28 25.21 15.32Q25.65 14.37 26.46 13.86Q27.27 13.35 28.31 13.35Q29.35 13.35 30.16 13.85Q30.96 14.35 31.40 15.29Q31.84 16.23 31.85 17.48L31.85 17.48L31.85 17.96Q31.85 19.21 31.41 20.16Q30.98 21.10 30.18 21.61Q29.37 22.12 28.32 22.12L28.32 22.12Q27.28 22.12 26.47 21.61Q25.66 21.10 25.22 20.17Q24.78 19.23 24.77 18.00ZM26.25 17.46L26.25 17.96Q26.25 19.36 26.80 20.13Q27.35 20.90 28.32 20.90L28.32 20.90Q29.31 20.90 29.84 20.15Q30.37 19.40 30.37 17.96L30.37 17.96L30.37 17.51Q30.37 16.09 29.83 15.34Q29.29 14.58 28.31 14.58L28.31 14.58Q27.35 14.58 26.81 15.33Q26.26 16.09 26.25 17.46L26.25 17.46ZM38.77 22L36.31 22L36.31 13.47L38.83 13.47Q39.96 13.47 40.84 13.97Q41.72 14.48 42.20 15.40Q42.68 16.33 42.68 17.52L42.68 17.52L42.68 17.95Q42.68 19.16 42.19 20.08Q41.71 21.00 40.82 21.50Q39.92 22 38.77 22L38.77 22ZM37.80 14.66L37.80 20.82L38.76 20.82Q39.93 20.82 40.55 20.09Q41.18 19.36 41.19 17.99L41.19 17.99L41.19 17.52Q41.19 16.13 40.58 15.40Q39.98 14.66 38.83 14.66L38.83 14.66L37.80 14.66ZM52.72 22L47.14 22L47.14 13.47L52.68 13.47L52.68 14.66L48.62 14.66L48.62 17.02L52.13 17.02L52.13 18.19L48.62 18.19L48.62 20.82L52.72 20.82L52.72 22ZM59.37 22L56.91 22L56.91 13.47L59.43 13.47Q60.56 13.47 61.44 13.97Q62.32 14.48 62.80 15.40Q63.28 16.33 63.28 17.52L63.28 17.52L63.28 17.95Q63.28 19.16 62.79 20.08Q62.31 21.00 61.42 21.50Q60.52 22 59.37 22L59.37 22ZM58.40 14.66L58.40 20.82L59.36 20.82Q60.53 20.82 61.15 20.09Q61.78 19.36 61.79 17.99L61.79 17.99L61.79 17.52Q61.79 16.13 61.19 15.40Q60.58 14.66 59.43 14.66L59.43 14.66L58.40 14.66ZM75.28 22L73.81 22L73.81 13.47L75.28 13.47L75.28 22ZM81.58 22L80.09 22L80.09 13.47L81.58 13.47L85.39 19.54L85.39 13.47L86.86 13.47L86.86 22L85.38 22L81.58 15.95L81.58 22Z" fill="#FFFFFF"/><path class="svg__text" d="M115.48 22L113.10 22L113.10 13.60L116.94 13.60Q118.08 13.60 118.92 13.98Q119.76 14.35 120.22 15.06Q120.67 15.76 120.67 16.71L120.67 16.71Q120.67 17.62 120.25 18.30Q119.82 18.98 119.03 19.36L119.03 19.36L120.84 22L118.30 22L116.77 19.77L115.48 19.77L115.48 22ZM115.48 15.47L115.48 17.93L116.80 17.93Q117.53 17.93 117.90 17.61Q118.27 17.29 118.27 16.71L118.27 16.71Q118.27 16.12 117.90 15.79Q117.53 15.47 116.80 15.47L116.80 15.47L115.48 15.47ZM125.39 18.26L125.39 18.26L125.39 13.60L127.77 13.60L127.77 18.19Q127.77 20.20 129.36 20.20L129.36 20.20Q130.95 20.20 130.95 18.19L130.95 18.19L130.95 13.60L133.29 13.60L133.29 18.26Q133.29 20.13 132.25 21.15Q131.21 22.17 129.34 22.17L129.34 22.17Q127.47 22.17 126.43 21.15Q125.39 20.13 125.39 18.26ZM137.79 21.24L137.79 21.24L138.57 19.49Q139.13 19.86 139.88 20.09Q140.62 20.32 141.34 20.32L141.34 20.32Q142.71 20.32 142.71 19.64L142.71 19.64Q142.71 19.28 142.32 19.11Q141.93 18.93 141.06 18.74L141.06 18.74Q140.12 18.53 139.48 18.30Q138.84 18.06 138.39 17.55Q137.94 17.03 137.94 16.16L137.94 16.16Q137.94 15.39 138.35 14.77Q138.77 14.15 139.61 13.79Q140.44 13.43 141.65 13.43L141.65 13.43Q142.48 13.43 143.28 13.62Q144.09 13.80 144.70 14.17L144.70 14.17L143.97 15.93Q142.77 15.28 141.64 15.28L141.64 15.28Q140.93 15.28 140.61 15.49Q140.29 15.70 140.29 16.04L140.29 16.04Q140.29 16.37 140.67 16.54Q141.05 16.71 141.90 16.89L141.90 16.89Q142.86 17.10 143.49 17.33Q144.12 17.56 144.59 18.07Q145.05 18.58 145.05 19.46L145.05 19.46Q145.05 20.21 144.63 20.83Q144.21 21.44 143.37 21.80Q142.53 22.17 141.33 22.17L141.33 22.17Q140.31 22.17 139.35 21.92Q138.39 21.67 137.79 21.24ZM151.42 15.48L148.83 15.48L148.83 13.60L156.36 13.60L156.36 15.48L153.79 15.48L153.79 22L151.42 22L151.42 15.48Z" fill="#FFFFFF" x="111.91"/></svg>