<svg xmlns="http://www.w3.org/2000/svg" width="190.71000000000004" height="35" viewBox="0 0 190.71000000000004 35"><rect class="svg__rect" x="0" y="0" width="123.45" height="35" fill="#000000"/><rect class="svg__rect" x="121.45" y="0" width="69.26000000000002" height="35" fill="#F64D00"/><path class="svg__text" d="M15.70 22L14.22 22L14.22 13.47L17.48 13.47Q18.91 13.47 19.75 14.21Q20.59 14.96 20.59 16.18L20.59 16.18Q20.59 17.44 19.77 18.13Q18.95 18.83 17.46 18.83L17.46 18.83L15.70 18.83L15.70 22ZM15.70 14.66L15.70 17.64L17.48 17.64Q18.27 17.64 18.69 17.27Q19.10 16.90 19.10 16.19L19.10 16.19Q19.10 15.50 18.68 15.09Q18.26 14.68 17.52 14.66L17.52 14.66L15.70 14.66ZM24.61 18.00L24.61 18.00L24.61 17.52Q24.61 16.28 25.05 15.32Q25.49 14.37 26.30 13.86Q27.10 13.35 28.14 13.35Q29.19 13.35 29.99 13.85Q30.80 14.35 31.24 15.29Q31.68 16.23 31.68 17.48L31.68 17.48L31.68 17.96Q31.68 19.21 31.25 20.16Q30.82 21.10 30.01 21.61Q29.21 22.12 28.16 22.12L28.16 22.12Q27.12 22.12 26.31 21.61Q25.50 21.10 25.05 20.17Q24.61 19.23 24.61 18.00ZM26.09 17.46L26.09 17.96Q26.09 19.36 26.64 20.13Q27.18 20.90 28.16 20.90L28.16 20.90Q29.14 20.90 29.67 20.15Q30.20 19.40 30.20 17.96L30.20 17.96L30.20 17.51Q30.20 16.09 29.67 15.34Q29.13 14.58 28.14 14.58L28.14 14.58Q27.18 14.58 26.64 15.33Q26.10 16.09 26.09 17.46L26.09 17.46ZM37.53 22L35.56 13.47L37.03 13.47L38.36 19.88L39.99 13.47L41.23 13.47L42.84 19.89L44.15 13.47L45.62 13.47L43.65 22L42.24 22L40.61 15.77L38.96 22L37.53 22ZM55.27 22L49.70 22L49.70 13.47L55.23 13.47L55.23 14.66L51.18 14.66L51.18 17.02L54.68 17.02L54.68 18.19L51.18 18.19L51.18 20.82L55.27 20.82L55.27 22ZM60.95 22L59.47 22L59.47 13.47L62.47 13.47Q63.95 13.47 64.75 14.13Q65.55 14.79 65.55 16.05L65.55 16.05Q65.55 16.90 65.14 17.48Q64.72 18.06 63.99 18.37L63.99 18.37L65.90 21.92L65.90 22L64.31 22L62.60 18.71L60.95 18.71L60.95 22ZM60.95 14.66L60.95 17.52L62.48 17.52Q63.23 17.52 63.65 17.15Q64.07 16.77 64.07 16.11L64.07 16.11Q64.07 15.43 63.68 15.05Q63.29 14.68 62.52 14.66L62.52 14.66L60.95 14.66ZM75.52 22L69.95 22L69.95 13.47L75.48 13.47L75.48 14.66L71.43 14.66L71.43 17.02L74.93 17.02L74.93 18.19L71.43 18.19L71.43 20.82L75.52 20.82L75.52 22ZM82.17 22L79.72 22L79.72 13.47L82.24 13.47Q83.37 13.47 84.25 13.97Q85.12 14.48 85.60 15.40Q86.08 16.33 86.08 17.52L86.08 17.52L86.08 17.95Q86.08 19.16 85.60 20.08Q85.12 21.00 84.22 21.50Q83.33 22 82.17 22L82.17 22ZM81.20 14.66L81.20 20.82L82.17 20.82Q83.33 20.82 83.96 20.09Q84.58 19.36 84.59 17.99L84.59 17.99L84.59 17.52Q84.59 16.13 83.99 15.40Q83.39 14.66 82.24 14.66L82.24 14.66L81.20 14.66ZM98.09 22L96.61 22L96.61 13.47L98.09 13.47L98.09 22ZM104.38 22L102.90 22L102.90 13.47L104.38 13.47L108.20 19.54L108.20 13.47L109.67 13.47L109.67 22L108.18 22L104.38 15.95L104.38 22Z" fill="#FFFFFF"/><path class="svg__text" d="M138.02 22L135.64 22L135.64 13.60L139.48 13.60Q140.62 13.60 141.46 13.98Q142.30 14.35 142.76 15.06Q143.21 15.76 143.21 16.71L143.21 16.71Q143.21 17.62 142.79 18.30Q142.36 18.98 141.57 19.36L141.57 19.36L143.38 22L140.84 22L139.31 19.77L138.02 19.77L138.02 22ZM138.02 15.47L138.02 17.93L139.34 17.93Q140.07 17.93 140.44 17.61Q140.81 17.29 140.81 16.71L140.81 16.71Q140.81 16.12 140.44 15.79Q140.07 15.47 139.34 15.47L139.34 15.47L138.02 15.47ZM147.93 18.26L147.93 18.26L147.93 13.60L150.31 13.60L150.31 18.19Q150.31 20.20 151.90 20.20L151.90 20.20Q153.49 20.20 153.49 18.19L153.49 18.19L153.49 13.60L155.83 13.60L155.83 18.26Q155.83 20.13 154.79 21.15Q153.75 22.17 151.88 22.17L151.88 22.17Q150.01 22.17 148.97 21.15Q147.93 20.13 147.93 18.26ZM160.33 21.24L160.33 21.24L161.11 19.49Q161.67 19.86 162.42 20.09Q163.16 20.32 163.88 20.32L163.88 20.32Q165.25 20.32 165.25 19.64L165.25 19.64Q165.25 19.28 164.86 19.11Q164.47 18.93 163.60 18.74L163.60 18.74Q162.66 18.53 162.02 18.30Q161.38 18.06 160.93 17.55Q160.48 17.03 160.48 16.16L160.48 16.16Q160.48 15.39 160.89 14.77Q161.31 14.15 162.15 13.79Q162.98 13.43 164.19 13.43L164.19 13.43Q165.02 13.43 165.82 13.62Q166.63 13.80 167.24 14.17L167.24 14.17L166.51 15.93Q165.31 15.28 164.18 15.28L164.18 15.28Q163.47 15.28 163.15 15.49Q162.83 15.70 162.83 16.04L162.83 16.04Q162.83 16.37 163.21 16.54Q163.59 16.71 164.44 16.89L164.44 16.89Q165.40 17.10 166.03 17.33Q166.66 17.56 167.13 18.07Q167.59 18.58 167.59 19.46L167.59 19.46Q167.59 20.21 167.17 20.83Q166.75 21.44 165.91 21.80Q165.07 22.17 163.87 22.17L163.87 22.17Q162.85 22.17 161.89 21.92Q160.93 21.67 160.33 21.24ZM173.96 15.48L171.37 15.48L171.37 13.60L178.90 13.60L178.90 15.48L176.33 15.48L176.33 22L173.96 22L173.96 15.48Z" fill="#FFFFFF" x="134.45"/></svg>