<svg xmlns="http://www.w3.org/2000/svg" width="221.26" height="35" viewBox="0 0 221.26 35"><rect class="svg__rect" x="0" y="0" width="127.25" height="35" fill="#000000"/><rect class="svg__rect" x="125.25" y="0" width="96.00999999999999" height="35" fill="#FFFFFF"/><path class="svg__text" d="M15.70 22L14.22 22L14.22 13.47L17.48 13.47Q18.91 13.47 19.75 14.21Q20.59 14.96 20.59 16.18L20.59 16.18Q20.59 17.44 19.77 18.13Q18.95 18.83 17.46 18.83L17.46 18.83L15.70 18.83L15.70 22ZM15.70 14.66L15.70 17.64L17.48 17.64Q18.27 17.64 18.69 17.27Q19.10 16.90 19.10 16.19L19.10 16.19Q19.10 15.50 18.68 15.09Q18.26 14.68 17.52 14.66L17.52 14.66L15.70 14.66ZM24.61 18.00L24.61 18.00L24.61 17.52Q24.61 16.28 25.05 15.32Q25.49 14.37 26.30 13.86Q27.10 13.35 28.14 13.35Q29.19 13.35 29.99 13.85Q30.80 14.35 31.24 15.29Q31.68 16.23 31.68 17.48L31.68 17.48L31.68 17.96Q31.68 19.21 31.25 20.16Q30.82 21.10 30.01 21.61Q29.21 22.12 28.16 22.12L28.16 22.12Q27.12 22.12 26.31 21.61Q25.50 21.10 25.05 20.17Q24.61 19.23 24.61 18.00ZM26.09 17.46L26.09 17.96Q26.09 19.36 26.64 20.13Q27.18 20.90 28.16 20.90L28.16 20.90Q29.14 20.90 29.67 20.15Q30.20 19.40 30.20 17.96L30.20 17.96L30.20 17.51Q30.20 16.09 29.67 15.34Q29.13 14.58 28.14 14.58L28.14 14.58Q27.18 14.58 26.64 15.33Q26.10 16.09 26.09 17.46L26.09 17.46ZM37.53 22L35.56 13.47L37.03 13.47L38.36 19.88L39.99 13.47L41.23 13.47L42.84 19.89L44.15 13.47L45.62 13.47L43.65 22L42.24 22L40.61 15.77L38.96 22L37.53 22ZM55.27 22L49.70 22L49.70 13.47L55.23 13.47L55.23 14.66L51.18 14.66L51.18 17.02L54.68 17.02L54.68 18.19L51.18 18.19L51.18 20.82L55.27 20.82L55.27 22ZM60.95 22L59.47 22L59.47 13.47L62.47 13.47Q63.95 13.47 64.75 14.13Q65.55 14.79 65.55 16.05L65.55 16.05Q65.55 16.90 65.14 17.48Q64.72 18.06 63.99 18.37L63.99 18.37L65.90 21.92L65.90 22L64.31 22L62.60 18.71L60.95 18.71L60.95 22ZM60.95 14.66L60.95 17.52L62.48 17.52Q63.23 17.52 63.65 17.15Q64.07 16.77 64.07 16.11L64.07 16.11Q64.07 15.43 63.68 15.05Q63.29 14.68 62.52 14.66L62.52 14.66L60.95 14.66ZM75.52 22L69.95 22L69.95 13.47L75.48 13.47L75.48 14.66L71.43 14.66L71.43 17.02L74.93 17.02L74.93 18.19L71.43 18.19L71.43 20.82L75.52 20.82L75.52 22ZM82.17 22L79.72 22L79.72 13.47L82.24 13.47Q83.37 13.47 84.25 13.97Q85.12 14.48 85.60 15.40Q86.08 16.33 86.08 17.52L86.08 17.52L86.08 17.95Q86.08 19.16 85.60 20.08Q85.12 21.00 84.22 21.50Q83.33 22 82.17 22L82.17 22ZM81.20 14.66L81.20 20.82L82.17 20.82Q83.33 20.82 83.96 20.09Q84.58 19.36 84.59 17.99L84.59 17.99L84.59 17.52Q84.59 16.13 83.99 15.40Q83.39 14.66 82.24 14.66L82.24 14.66L81.20 14.66ZM99.64 22L96.52 22L96.52 13.47L99.45 13.47Q100.89 13.47 101.65 14.05Q102.41 14.63 102.41 15.78L102.41 15.78Q102.41 16.36 102.09 16.83Q101.77 17.30 101.16 17.56L101.16 17.56Q101.86 17.75 102.23 18.26Q102.61 18.78 102.61 19.51L102.61 19.51Q102.61 20.71 101.84 21.36Q101.07 22 99.64 22L99.64 22ZM98.01 18.15L98.01 20.82L99.65 20.82Q100.35 20.82 100.74 20.47Q101.14 20.13 101.14 19.51L101.14 19.51Q101.14 18.18 99.78 18.15L99.78 18.15L98.01 18.15ZM98.01 14.66L98.01 17.06L99.46 17.06Q100.15 17.06 100.54 16.75Q100.93 16.43 100.93 15.86L100.93 15.86Q100.93 15.23 100.57 14.95Q100.21 14.66 99.45 14.66L99.45 14.66L98.01 14.66ZM109.12 18.86L106.26 13.47L107.90 13.47L109.87 17.51L111.83 13.47L113.47 13.47L110.61 18.86L110.61 22L109.12 22L109.12 18.86Z" fill="#FFFFFF"/><path class="svg__text" d="M141.82 22L139.44 22L139.44 13.60L143.28 13.60Q144.42 13.60 145.26 13.98Q146.10 14.35 146.56 15.06Q147.01 15.76 147.01 16.71L147.01 16.71Q147.01 17.66 146.56 18.35Q146.10 19.05 145.26 19.42Q144.42 19.80 143.28 19.80L143.28 19.80L141.82 19.80L141.82 22ZM141.82 15.47L141.82 17.93L143.14 17.93Q143.87 17.93 144.24 17.61Q144.61 17.29 144.61 16.71L144.61 16.71Q144.61 16.12 144.24 15.80Q143.87 15.47 143.14 15.47L143.14 15.47L141.82 15.47ZM153.89 18.95L150.69 13.60L153.20 13.60L155.19 16.94L157.18 13.60L159.48 13.60L156.27 18.99L156.27 22L153.89 22L153.89 18.95ZM165.36 15.48L162.78 15.48L162.78 13.60L170.30 13.60L170.30 15.48L167.73 15.48L167.73 22L165.36 22L165.36 15.48ZM177.05 22L174.67 22L174.67 13.60L177.05 13.60L177.05 16.76L180.29 16.76L180.29 13.60L182.66 13.60L182.66 22L180.29 22L180.29 18.72L177.05 18.72L177.05 22ZM187.40 17.80L187.40 17.80Q187.40 16.55 188.00 15.55Q188.60 14.56 189.67 14.00Q190.73 13.43 192.06 13.43L192.06 13.43Q193.39 13.43 194.45 14.00Q195.52 14.56 196.12 15.55Q196.73 16.55 196.73 17.80L196.73 17.80Q196.73 19.05 196.12 20.04Q195.52 21.04 194.46 21.60Q193.40 22.17 192.06 22.17L192.06 22.17Q190.73 22.17 189.67 21.60Q188.60 21.04 188.00 20.04Q187.40 19.05 187.40 17.80ZM189.79 17.80L189.79 17.80Q189.79 18.51 190.10 19.05Q190.40 19.60 190.91 19.90Q191.43 20.20 192.06 20.20L192.06 20.20Q192.70 20.20 193.22 19.90Q193.73 19.60 194.03 19.05Q194.33 18.51 194.33 17.80L194.33 17.80Q194.33 17.09 194.03 16.54Q193.73 16 193.22 15.70Q192.70 15.40 192.06 15.40L192.06 15.40Q191.42 15.40 190.91 15.70Q190.40 16 190.10 16.54Q189.79 17.09 189.79 17.80ZM203.79 22L201.46 22L201.46 13.60L203.42 13.60L207.13 18.07L207.13 13.60L209.45 13.60L209.45 22L207.50 22L203.79 17.52L203.79 22Z" fill="#000000" x="138.25"/></svg>