<svg xmlns="http://www.w3.org/2000/svg" width="217.46000000000004" height="35" viewBox="0 0 217.46000000000004 35"><rect class="svg__rect" x="0" y="0" width="123.45" height="35" fill="#000000"/><rect class="svg__rect" x="121.45" y="0" width="96.01000000000002" height="35" fill="#FED848"/><path class="svg__text" d="M15.70 22L14.22 22L14.22 13.47L17.48 13.47Q18.91 13.47 19.75 14.21Q20.59 14.96 20.59 16.18L20.59 16.18Q20.59 17.44 19.77 18.13Q18.95 18.83 17.46 18.83L17.46 18.83L15.70 18.83L15.70 22ZM15.70 14.66L15.70 17.64L17.48 17.64Q18.27 17.64 18.69 17.27Q19.10 16.90 19.10 16.19L19.10 16.19Q19.10 15.50 18.68 15.09Q18.26 14.68 17.52 14.66L17.52 14.66L15.70 14.66ZM24.61 18.00L24.61 18.00L24.61 17.52Q24.61 16.28 25.05 15.32Q25.49 14.37 26.30 13.86Q27.10 13.35 28.14 13.35Q29.19 13.35 29.99 13.85Q30.80 14.35 31.24 15.29Q31.68 16.23 31.68 17.48L31.68 17.48L31.68 17.96Q31.68 19.21 31.25 20.16Q30.82 21.10 30.01 21.61Q29.21 22.12 28.16 22.12L28.16 22.12Q27.12 22.12 26.31 21.61Q25.50 21.10 25.05 20.17Q24.61 19.23 24.61 18.00ZM26.09 17.46L26.09 17.96Q26.09 19.36 26.64 20.13Q27.18 20.90 28.16 20.90L28.16 20.90Q29.14 20.90 29.67 20.15Q30.20 19.40 30.20 17.96L30.20 17.96L30.20 17.51Q30.20 16.09 29.67 15.34Q29.13 14.58 28.14 14.58L28.14 14.58Q27.18 14.58 26.64 15.33Q26.10 16.09 26.09 17.46L26.09 17.46ZM37.53 22L35.56 13.47L37.03 13.47L38.36 19.88L39.99 13.47L41.23 13.47L42.84 19.89L44.15 13.47L45.62 13.47L43.65 22L42.24 22L40.61 15.77L38.96 22L37.53 22ZM55.27 22L49.70 22L49.70 13.47L55.23 13.47L55.23 14.66L51.18 14.66L51.18 17.02L54.68 17.02L54.68 18.19L51.18 18.19L51.18 20.82L55.27 20.82L55.27 22ZM60.95 22L59.47 22L59.47 13.47L62.47 13.47Q63.95 13.47 64.75 14.13Q65.55 14.79 65.55 16.05L65.55 16.05Q65.55 16.90 65.14 17.48Q64.72 18.06 63.99 18.37L63.99 18.37L65.90 21.92L65.90 22L64.31 22L62.60 18.71L60.95 18.71L60.95 22ZM60.95 14.66L60.95 17.52L62.48 17.52Q63.23 17.52 63.65 17.15Q64.07 16.77 64.07 16.11L64.07 16.11Q64.07 15.43 63.68 15.05Q63.29 14.68 62.52 14.66L62.52 14.66L60.95 14.66ZM75.52 22L69.95 22L69.95 13.47L75.48 13.47L75.48 14.66L71.43 14.66L71.43 17.02L74.93 17.02L74.93 18.19L71.43 18.19L71.43 20.82L75.52 20.82L75.52 22ZM82.17 22L79.72 22L79.72 13.47L82.24 13.47Q83.37 13.47 84.25 13.97Q85.12 14.48 85.60 15.40Q86.08 16.33 86.08 17.52L86.08 17.52L86.08 17.95Q86.08 19.16 85.60 20.08Q85.12 21.00 84.22 21.50Q83.33 22 82.17 22L82.17 22ZM81.20 14.66L81.20 20.82L82.17 20.82Q83.33 20.82 83.96 20.09Q84.58 19.36 84.59 17.99L84.59 17.99L84.59 17.52Q84.59 16.13 83.99 15.40Q83.39 14.66 82.24 14.66L82.24 14.66L81.20 14.66ZM98.09 22L96.61 22L96.61 13.47L98.09 13.47L98.09 22ZM104.38 22L102.90 22L102.90 13.47L104.38 13.47L108.20 19.54L108.20 13.47L109.67 13.47L109.67 22L108.18 22L104.38 15.95L104.38 22Z" fill="#FFFFFF"/><path class="svg__text" d="M138.02 22L135.64 22L135.64 13.60L139.48 13.60Q140.62 13.60 141.46 13.98Q142.30 14.35 142.76 15.06Q143.21 15.76 143.21 16.71L143.21 16.71Q143.21 17.66 142.76 18.35Q142.30 19.05 141.46 19.42Q140.62 19.80 139.48 19.80L139.48 19.80L138.02 19.80L138.02 22ZM138.02 15.47L138.02 17.93L139.34 17.93Q140.07 17.93 140.44 17.61Q140.81 17.29 140.81 16.71L140.81 16.71Q140.81 16.12 140.44 15.80Q140.07 15.47 139.34 15.47L139.34 15.47L138.02 15.47ZM150.09 18.95L146.89 13.60L149.40 13.60L151.39 16.94L153.38 13.60L155.68 13.60L152.47 18.99L152.47 22L150.09 22L150.09 18.95ZM161.56 15.48L158.98 15.48L158.98 13.60L166.50 13.60L166.50 15.48L163.93 15.48L163.93 22L161.56 22L161.56 15.48ZM173.25 22L170.87 22L170.87 13.60L173.25 13.60L173.25 16.76L176.49 16.76L176.49 13.60L178.86 13.60L178.86 22L176.49 22L176.49 18.72L173.25 18.72L173.25 22ZM183.60 17.80L183.60 17.80Q183.60 16.55 184.20 15.55Q184.80 14.56 185.87 14.00Q186.93 13.43 188.26 13.43L188.26 13.43Q189.59 13.43 190.65 14.00Q191.72 14.56 192.32 15.55Q192.93 16.55 192.93 17.80L192.93 17.80Q192.93 19.05 192.32 20.04Q191.72 21.04 190.66 21.60Q189.60 22.17 188.26 22.17L188.26 22.17Q186.93 22.17 185.87 21.60Q184.80 21.04 184.20 20.04Q183.60 19.05 183.60 17.80ZM185.99 17.80L185.99 17.80Q185.99 18.51 186.30 19.05Q186.60 19.60 187.11 19.90Q187.63 20.20 188.26 20.20L188.26 20.20Q188.90 20.20 189.42 19.90Q189.93 19.60 190.23 19.05Q190.53 18.51 190.53 17.80L190.53 17.80Q190.53 17.09 190.23 16.54Q189.93 16 189.42 15.70Q188.90 15.40 188.26 15.40L188.26 15.40Q187.62 15.40 187.11 15.70Q186.60 16 186.30 16.54Q185.99 17.09 185.99 17.80ZM199.99 22L197.66 22L197.66 13.60L199.62 13.60L203.33 18.07L203.33 13.60L205.65 13.60L205.65 22L203.70 22L199.99 17.52L199.99 22Z" fill="#000000" x="134.45"/></svg>