<svg xmlns="http://www.w3.org/2000/svg" width="218.04" height="35" viewBox="0 0 218.04 35"><rect class="svg__rect" x="0" y="0" width="124.03" height="35" fill="#000000"/><rect class="svg__rect" x="122.03" y="0" width="96.00999999999999" height="35" fill="#FFFFFF"/><path class="svg__text" d="M13.95 18.19L13.95 18.19L13.95 17.39Q13.95 16.19 14.38 15.27Q14.80 14.35 15.60 13.85Q16.40 13.35 17.45 13.35L17.45 13.35Q18.86 13.35 19.73 14.12Q20.59 14.89 20.73 16.29L20.73 16.29L19.25 16.29Q19.14 15.37 18.71 14.96Q18.28 14.55 17.45 14.55L17.45 14.55Q16.48 14.55 15.97 15.26Q15.45 15.96 15.44 17.33L15.44 17.33L15.44 18.09Q15.44 19.47 15.93 20.20Q16.43 20.92 17.38 20.92L17.38 20.92Q18.25 20.92 18.69 20.53Q19.13 20.14 19.25 19.22L19.25 19.22L20.73 19.22Q20.60 20.59 19.72 21.35Q18.84 22.12 17.38 22.12L17.38 22.12Q16.36 22.12 15.59 21.63Q14.81 21.15 14.39 20.26Q13.97 19.37 13.95 18.19ZM24.77 18.00L24.77 18.00L24.77 17.52Q24.77 16.28 25.21 15.32Q25.65 14.37 26.46 13.86Q27.27 13.35 28.31 13.35Q29.35 13.35 30.16 13.85Q30.96 14.35 31.40 15.29Q31.84 16.23 31.85 17.48L31.85 17.48L31.85 17.96Q31.85 19.21 31.41 20.16Q30.98 21.10 30.18 21.61Q29.37 22.12 28.32 22.12L28.32 22.12Q27.28 22.12 26.47 21.61Q25.66 21.10 25.22 20.17Q24.78 19.23 24.77 18.00ZM26.25 17.46L26.25 17.96Q26.25 19.36 26.80 20.13Q27.35 20.90 28.32 20.90L28.32 20.90Q29.31 20.90 29.84 20.15Q30.37 19.40 30.37 17.96L30.37 17.96L30.37 17.51Q30.37 16.09 29.83 15.34Q29.29 14.58 28.31 14.58L28.31 14.58Q27.35 14.58 26.81 15.33Q26.26 16.09 26.25 17.46L26.25 17.46ZM38.77 22L36.31 22L36.31 13.47L38.83 13.47Q39.96 13.47 40.84 13.97Q41.72 14.48 42.20 15.40Q42.68 16.33 42.68 17.52L42.68 17.52L42.68 17.95Q42.68 19.16 42.19 20.08Q41.71 21.00 40.82 21.50Q39.92 22 38.77 22L38.77 22ZM37.80 14.66L37.80 20.82L38.76 20.82Q39.93 20.82 40.55 20.09Q41.18 19.36 41.19 17.99L41.19 17.99L41.19 17.52Q41.19 16.13 40.58 15.40Q39.98 14.66 38.83 14.66L38.83 14.66L37.80 14.66ZM52.72 22L47.14 22L47.14 13.47L52.68 13.47L52.68 14.66L48.62 14.66L48.62 17.02L52.13 17.02L52.13 18.19L48.62 18.19L48.62 20.82L52.72 20.82L52.72 22ZM59.37 22L56.91 22L56.91 13.47L59.43 13.47Q60.56 13.47 61.44 13.97Q62.32 14.48 62.80 15.40Q63.28 16.33 63.28 17.52L63.28 17.52L63.28 17.95Q63.28 19.16 62.79 20.08Q62.31 21.00 61.42 21.50Q60.52 22 59.37 22L59.37 22ZM58.40 14.66L58.40 20.82L59.36 20.82Q60.53 20.82 61.15 20.09Q61.78 19.36 61.79 17.99L61.79 17.99L61.79 17.52Q61.79 16.13 61.19 15.40Q60.58 14.66 59.43 14.66L59.43 14.66L58.40 14.66ZM75.10 22L73.13 13.47L74.60 13.47L75.93 19.88L77.56 13.47L78.80 13.47L80.41 19.89L81.72 13.47L83.19 13.47L81.22 22L79.81 22L78.18 15.77L76.53 22L75.10 22ZM88.83 22L87.35 22L87.35 13.47L88.83 13.47L88.83 22ZM95.32 14.66L92.69 14.66L92.69 13.47L99.45 13.47L99.45 14.66L96.79 14.66L96.79 22L95.32 22L95.32 14.66ZM104.69 22L103.21 22L103.21 13.47L104.69 13.47L104.69 17.02L108.51 17.02L108.51 13.47L109.98 13.47L109.98 22L108.51 22L108.51 18.21L104.69 18.21L104.69 22Z" fill="#FFFFFF"/><path class="svg__text" d="M138.60 22L136.22 22L136.22 13.60L140.06 13.60Q141.20 13.60 142.04 13.98Q142.88 14.35 143.34 15.06Q143.79 15.76 143.79 16.71L143.79 16.71Q143.79 17.66 143.34 18.35Q142.88 19.05 142.04 19.42Q141.20 19.80 140.06 19.80L140.06 19.80L138.60 19.80L138.60 22ZM138.60 15.47L138.60 17.93L139.92 17.93Q140.65 17.93 141.02 17.61Q141.39 17.29 141.39 16.71L141.39 16.71Q141.39 16.12 141.02 15.80Q140.65 15.47 139.92 15.47L139.92 15.47L138.60 15.47ZM150.67 18.95L147.47 13.60L149.98 13.60L151.97 16.94L153.96 13.60L156.26 13.60L153.05 18.99L153.05 22L150.67 22L150.67 18.95ZM162.14 15.48L159.56 15.48L159.56 13.60L167.08 13.60L167.08 15.48L164.51 15.48L164.51 22L162.14 22L162.14 15.48ZM173.83 22L171.45 22L171.45 13.60L173.83 13.60L173.83 16.76L177.07 16.76L177.07 13.60L179.44 13.60L179.44 22L177.07 22L177.07 18.72L173.83 18.72L173.83 22ZM184.18 17.80L184.18 17.80Q184.18 16.55 184.78 15.55Q185.38 14.56 186.45 14.00Q187.51 13.43 188.84 13.43L188.84 13.43Q190.17 13.43 191.23 14.00Q192.30 14.56 192.90 15.55Q193.51 16.55 193.51 17.80L193.51 17.80Q193.51 19.05 192.90 20.04Q192.30 21.04 191.24 21.60Q190.18 22.17 188.84 22.17L188.84 22.17Q187.51 22.17 186.45 21.60Q185.38 21.04 184.78 20.04Q184.18 19.05 184.18 17.80ZM186.57 17.80L186.57 17.80Q186.57 18.51 186.88 19.05Q187.18 19.60 187.69 19.90Q188.21 20.20 188.84 20.20L188.84 20.20Q189.48 20.20 190.00 19.90Q190.51 19.60 190.81 19.05Q191.11 18.51 191.11 17.80L191.11 17.80Q191.11 17.09 190.81 16.54Q190.51 16 190.00 15.70Q189.48 15.40 188.84 15.40L188.84 15.40Q188.20 15.40 187.69 15.70Q187.18 16 186.88 16.54Q186.57 17.09 186.57 17.80ZM200.57 22L198.24 22L198.24 13.60L200.20 13.60L203.91 18.07L203.91 13.60L206.23 13.60L206.23 22L204.28 22L200.57 17.52L200.57 22Z" fill="#000000" x="135.03"/></svg>